#
# generated by kHED
#
mtllib floor.mtl
# vertices:
v -20.000000 0.000000 20.000000
v 20.000000 0.000000 20.000000
v -20.000000 0.000000 -20.000000
v 20.000000 0.000000 -20.000000
v -60.000000 0.000000 20.000000
v -20.000000 0.000000 20.000000
v -60.000000 0.000000 -20.000000
v -20.000000 0.000000 -20.000000
v -20.000000 0.000000 -20.000000
v 20.000000 0.000000 -20.000000
v -20.000000 0.000000 -60.000000
v 20.000000 0.000000 -60.000000
v -60.000000 0.000000 -20.000000
v -20.000000 0.000000 -20.000000
v -60.000000 0.000000 -60.000000
v -20.000000 0.000000 -60.000000
v 20.000000 0.000000 -20.000000
v 60.000000 0.000000 -20.000000
v 20.000000 0.000000 -60.000000
v 60.000000 0.000000 -60.000000
v 20.000000 0.000000 20.000000
v 60.000000 0.000000 20.000000
v 20.000000 0.000000 -20.000000
v 60.000000 0.000000 -20.000000
v 20.000000 0.000000 60.000000
v 60.000000 0.000000 60.000000
v 20.000000 0.000000 20.000000
v 60.000000 0.000000 20.000000
v -20.000000 0.000000 60.000000
v 20.000000 0.000000 60.000000
v -20.000000 0.000000 20.000000
v 20.000000 0.000000 20.000000
v -60.000000 0.000000 60.000000
v -20.000000 0.000000 60.000000
v -60.000000 0.000000 20.000000
v -20.000000 0.000000 20.000000

# texture coords:
vt 0.000000 1.000000 0.0
vt 1.000000 1.000000 0.0
vt 1.000000 0.000000 0.0
vt 0.000000 1.000000 0.0
vt 1.000000 0.000000 0.0
vt 0.000000 0.000000 0.0
vt 0.000000 1.000000 0.0
vt 1.000000 1.000000 0.0
vt 1.000000 0.000000 0.0
vt 0.000000 1.000000 0.0
vt 1.000000 0.000000 0.0
vt 0.000000 0.000000 0.0
vt 0.000000 1.000000 0.0
vt 1.000000 1.000000 0.0
vt 1.000000 0.000000 0.0
vt 0.000000 1.000000 0.0
vt 1.000000 0.000000 0.0
vt 0.000000 0.000000 0.0
vt 0.000000 1.000000 0.0
vt 1.000000 1.000000 0.0
vt 1.000000 0.000000 0.0
vt 0.000000 1.000000 0.0
vt 1.000000 0.000000 0.0
vt 0.000000 0.000000 0.0
vt 0.000000 1.000000 0.0
vt 1.000000 1.000000 0.0
vt 1.000000 0.000000 0.0
vt 0.000000 1.000000 0.0
vt 1.000000 0.000000 0.0
vt 0.000000 0.000000 0.0
vt 0.000000 1.000000 0.0
vt 1.000000 1.000000 0.0
vt 1.000000 0.000000 0.0
vt 0.000000 1.000000 0.0
vt 1.000000 0.000000 0.0
vt 0.000000 0.000000 0.0
vt 0.000000 1.000000 0.0
vt 1.000000 1.000000 0.0
vt 1.000000 0.000000 0.0
vt 0.000000 1.000000 0.0
vt 1.000000 0.000000 0.0
vt 0.000000 0.000000 0.0
vt 0.000000 1.000000 0.0
vt 1.000000 1.000000 0.0
vt 1.000000 0.000000 0.0
vt 0.000000 1.000000 0.0
vt 1.000000 0.000000 0.0
vt 0.000000 0.000000 0.0
vt 0.000000 1.000000 0.0
vt 1.000000 1.000000 0.0
vt 1.000000 0.000000 0.0
vt 0.000000 1.000000 0.0
vt 1.000000 0.000000 0.0
vt 0.000000 0.000000 0.0

# normals:
vn 0.000000 1.000000 0.000000
vn 0.000000 1.000000 0.000000
vn 0.000000 1.000000 0.000000
vn 0.000000 1.000000 0.000000
vn 0.000000 1.000000 0.000000
vn 0.000000 1.000000 0.000000
vn 0.000000 1.000000 0.000000
vn 0.000000 1.000000 0.000000
vn 0.000000 1.000000 0.000000
vn 0.000000 1.000000 0.000000
vn 0.000000 1.000000 0.000000
vn 0.000000 1.000000 0.000000
vn 0.000000 1.000000 0.000000
vn 0.000000 1.000000 0.000000
vn 0.000000 1.000000 0.000000
vn 0.000000 1.000000 0.000000
vn 0.000000 1.000000 0.000000
vn 0.000000 1.000000 0.000000
vn 0.000000 1.000000 0.000000
vn 0.000000 1.000000 0.000000
vn 0.000000 1.000000 0.000000
vn 0.000000 1.000000 0.000000
vn 0.000000 1.000000 0.000000
vn 0.000000 1.000000 0.000000
vn 0.000000 1.000000 0.000000
vn 0.000000 1.000000 0.000000
vn 0.000000 1.000000 0.000000
vn 0.000000 1.000000 0.000000
vn 0.000000 1.000000 0.000000
vn 0.000000 1.000000 0.000000
vn 0.000000 1.000000 0.000000
vn 0.000000 1.000000 0.000000
vn 0.000000 1.000000 0.000000
vn 0.000000 1.000000 0.000000
vn 0.000000 1.000000 0.000000
vn 0.000000 1.000000 0.000000
vn 0.000000 1.000000 0.000000
vn 0.000000 1.000000 0.000000
vn 0.000000 1.000000 0.000000
vn 0.000000 1.000000 0.000000
vn 0.000000 1.000000 0.000000
vn 0.000000 1.000000 0.000000
vn 0.000000 1.000000 0.000000
vn 0.000000 1.000000 0.000000
vn 0.000000 1.000000 0.000000
vn 0.000000 1.000000 0.000000
vn 0.000000 1.000000 0.000000
vn 0.000000 1.000000 0.000000
vn 0.000000 1.000000 0.000000
vn 0.000000 1.000000 0.000000
vn 0.000000 1.000000 0.000000
vn 0.000000 1.000000 0.000000
vn 0.000000 1.000000 0.000000
vn 0.000000 1.000000 0.000000

# triangles:
g Plane 10
usemtl Material1
s 0
f 1/1/1 2/2/2 4/3/3
f 1/4/4 4/5/5 3/6/6
g Plane 13
usemtl Material1
s 1
f 5/7/7 6/8/8 8/9/9
f 5/10/10 8/11/11 7/12/12
g Plane 15
usemtl Material1
s 2
f 9/13/13 10/14/14 12/15/15
f 9/16/16 12/17/17 11/18/18
g Plane 16
usemtl Material1
s 3
f 13/19/19 14/20/20 16/21/21
f 13/22/22 16/23/23 15/24/24
g Plane 1
usemtl Material1
s 4
f 17/25/25 18/26/26 20/27/27
f 17/28/28 20/29/29 19/30/30
g Plane 2
usemtl Material1
s 5
f 21/31/31 22/32/32 24/33/33
f 21/34/34 24/35/35 23/36/36
g Plane 3
usemtl Material1
s 6
f 25/37/37 26/38/38 28/39/39
f 25/40/40 28/41/41 27/42/42
g Plane 4
usemtl Material1
s 7
f 29/43/43 30/44/44 32/45/45
f 29/46/46 32/47/47 31/48/48
g Plane 5
usemtl Material1
s 8
f 33/49/49 34/50/50 36/51/51
f 33/52/52 36/53/53 35/54/54

g